<svg width="32" height="32" viewBox="0 0 32 32" fill="none" xmlns="http://www.w3.org/2000/svg">
<path d="M17.3334 25.3333V22.6666H24V20H13.3334C11.12 20 9.33335 18.2133 9.33335 16C9.33335 14.5466 10.12 13.28 11.28 12.5866C10.8934 12.04 10.6667 11.3866 10.6667 10.6666C10.6667 10.3866 10.72 10.1066 10.7867 9.83997C9.56858 10.3454 8.52732 11.2 7.79414 12.2962C7.06096 13.3925 6.66866 14.6812 6.66669 16C6.66669 19.68 9.65335 22.6666 13.3334 22.6666V25.3333H6.66669V28H25.3334V25.3333H17.3334Z" fill="#DDBC9A"/>
<path d="M14.08 7.34663C15.88 7.38663 17.3333 8.85329 17.3333 10.6666C17.3333 11.6666 16.8933 12.5466 16.2 13.16L16.9866 15.32L18.24 14.8666L18.6933 16.12L21.2 15.2133L20.7466 13.96L22 13.5066L18.3466 3.46663L17.0933 3.91996L16.64 2.66663L14.1333 3.57329L14.5866 4.82663L13.3333 5.29329L14.08 7.34663Z" fill="#DDBC9A"/>
<path d="M14 12.6666C15.1046 12.6666 16 11.7712 16 10.6666C16 9.56206 15.1046 8.66663 14 8.66663C12.8954 8.66663 12 9.56206 12 10.6666C12 11.7712 12.8954 12.6666 14 12.6666Z" fill="#DDBC9A"/>
</svg>
