<svg width="32" height="32" viewBox="0 0 32 32" fill="none" xmlns="http://www.w3.org/2000/svg">
<path d="M6.66667 29.3334C5.93333 29.3334 5.30556 29.0723 4.78333 28.55C4.26111 28.0278 4 27.4 4 26.6667V21.3334C4 20.6 4.26111 19.9723 4.78333 19.45C5.30556 18.9278 5.93333 18.6667 6.66667 18.6667H25.3333C26.0667 18.6667 26.6944 18.9278 27.2167 19.45C27.7389 19.9723 28 20.6 28 21.3334V26.6667C28 27.4 27.7389 28.0278 27.2167 28.55C26.6944 29.0723 26.0667 29.3334 25.3333 29.3334H6.66667ZM6.66667 26.6667H25.3333V21.3334H6.66667V26.6667ZM8.7 16.6667L2 12.8667L10 11.5334L7.83333 3.70004L14.4667 8.40004L18.4667 1.33337L19.8 9.33337L27.6333 7.16671L22.9333 13.8L28 16.6667H22.6L19.0667 14.6667L21.1333 11.7334L17.6667 12.7L17.0667 9.16671L15.3333 12.2667L12.4 10.2L13.3667 13.6667L9.83333 14.2667L13.8333 16.6667H8.7Z" fill="#DDBC9A"/>
</svg>
