<svg width="32" height="32" viewBox="0 0 32 32" fill="none" xmlns="http://www.w3.org/2000/svg">
<path d="M22.6667 14.6667C23.12 14.6667 23.56 14.72 24 14.7867V8.36L14 4L4 8.36V14.9067C4 20.96 8.26667 26.6267 14 28C14.7333 27.8267 15.44 27.5733 16.1333 27.2667C15.2133 25.96 14.6667 24.3733 14.6667 22.6667C14.6667 18.2533 18.2533 14.6667 22.6667 14.6667Z" fill="#DDBC9A"/>
<path d="M22.6666 17.3334C19.72 17.3334 17.3333 19.72 17.3333 22.6667C17.3333 25.6134 19.72 28 22.6666 28C25.6133 28 28 25.6134 28 22.6667C28 19.72 25.6133 17.3334 22.6666 17.3334ZM22.6666 19.1734C23.4933 19.1734 24.16 19.8534 24.16 20.6667C24.16 21.48 23.48 22.16 22.6666 22.16C21.8533 22.16 21.1733 21.48 21.1733 20.6667C21.1733 19.8534 21.84 19.1734 22.6666 19.1734ZM22.6666 26.3334C21.4266 26.3334 20.3466 25.72 19.68 24.7734C19.7466 23.8134 21.6933 23.3334 22.6666 23.3334C23.64 23.3334 25.5866 23.8134 25.6533 24.7734C24.9866 25.72 23.9066 26.3334 22.6666 26.3334Z" fill="#DDBC9A"/>
</svg>
