<svg width="32" height="32" viewBox="0 0 32 32" fill="none" xmlns="http://www.w3.org/2000/svg">
<path d="M14.6667 18.6666H12C12 15.484 13.2643 12.4318 15.5147 10.1813C17.7652 7.93091 20.8174 6.66663 24 6.66663V9.33329C18.84 9.33329 14.6667 13.5066 14.6667 18.6666ZM24 14.6666V12C20.32 12 17.3334 14.9866 17.3334 18.6666H20C20 16.4533 21.7867 14.6666 24 14.6666ZM9.33335 5.33329C9.33335 3.85329 8.14669 2.66663 6.66669 2.66663C5.18669 2.66663 4.00002 3.85329 4.00002 5.33329C4.00002 6.81329 5.18669 7.99996 6.66669 7.99996C8.14669 7.99996 9.33335 6.81329 9.33335 5.33329ZM15.2667 5.99996H12.6C12.4453 6.93136 11.965 7.77761 11.2447 8.38804C10.5244 8.99846 9.61085 9.33343 8.66669 9.33329H2.66669V14.6666H10.6667V11.6533C11.9021 11.2637 12.9962 10.5206 13.8137 9.51583C14.6313 8.51107 15.1364 7.28874 15.2667 5.99996ZM25.3334 22.6666C26.8134 22.6666 28 21.48 28 20C28 18.52 26.8134 17.3333 25.3334 17.3333C23.8534 17.3333 22.6667 18.52 22.6667 20C22.6667 21.48 23.8534 22.6666 25.3334 22.6666ZM23.3334 24C22.3892 24.0001 21.4756 23.6651 20.7553 23.0547C20.035 22.4443 19.5548 21.598 19.4 20.6666H16.7334C16.8636 21.9554 17.3688 23.1777 18.1863 24.1825C19.0039 25.1873 20.098 25.9304 21.3334 26.32V29.3333H29.3334V24H23.3334Z" fill="#DDBC9A"/>
</svg>
